<svg width="1024" height="1024" viewBox="0 0 1024 1024" fill="none" xmlns="http://www.w3.org/2000/svg">
<path fill-rule="evenodd" clip-rule="evenodd" d="M278.788 464.958C299.916 386.741 359.56 314.27 465.921 263.742L487.593 309.363C391.924 354.811 344.121 416.773 327.547 478.129C310.84 539.981 324.829 604.95 359.886 658.044C394.974 711.185 450.259 750.99 513.874 763.035C564.971 772.71 623.029 764.78 682.316 729.151L556.127 573.633C549.901 581.833 542.78 588.677 534.897 594.104C516.85 606.529 496.325 610.437 477.393 607.481C440.621 601.74 407.256 568.399 415.19 523.31C421.185 489.242 450.774 467.147 482.302 463.773C510.581 460.746 540.231 472.124 562.325 499.264L672.099 401.255L693.8 381.88L709.932 406.089C744.493 457.951 761.618 502.605 757.644 549.677C754.116 591.468 734.169 631.302 704.234 676.004L723.586 699.854C723.622 699.824 723.658 699.795 723.694 699.765L755.794 738.759C671.931 807.796 583.454 827.614 504.478 812.66C426.169 797.832 359.599 749.273 317.738 685.873C275.846 622.428 257.793 542.681 278.788 464.958ZM593.971 538.718L671.977 632.935C694.008 597.835 705.17 570.852 707.316 545.428C709.429 520.396 702.983 493.796 683.29 458.972L593.971 538.718ZM487.677 513.993C497.455 512.946 510.977 516.177 523.062 531.006C517.891 542.143 511.729 548.735 506.256 552.503C499.197 557.363 491.785 558.609 485.184 557.579C470.89 555.347 462.806 544.153 464.933 532.064C466.355 523.982 474.412 515.413 487.677 513.993Z" fill="#121212"/>
<path d="M607.493 206C602.45 237.46 598.213 256.161 586.586 267.789C574.958 279.416 556.257 283.653 524.797 288.697C556.257 293.74 574.958 297.977 586.586 309.639C598.213 321.267 602.45 339.968 607.493 371.453C612.537 339.968 616.774 321.267 628.401 309.604C640.063 297.977 658.765 293.74 690.249 288.697C658.765 283.653 640.063 279.416 628.436 267.789C616.774 256.161 612.537 237.46 607.493 206Z" fill="#121212"/>
</svg>
