<svg width="1024" height="1020" viewBox="0 0 1024 1020" fill="none" xmlns="http://www.w3.org/2000/svg">
<path fill-rule="evenodd" clip-rule="evenodd" d="M374.867 357.104C387.359 310.859 422.623 268.011 485.508 238.138L498.321 265.11C441.758 291.981 413.495 328.615 403.696 364.891C393.818 401.46 402.089 439.872 422.816 471.264C443.561 502.682 476.248 526.217 513.859 533.338C544.07 539.059 578.396 534.37 613.449 513.305L538.841 421.357C535.16 426.205 530.95 430.251 526.289 433.46C515.619 440.806 503.484 443.116 492.29 441.369C470.549 437.975 450.823 418.262 455.514 391.604C459.058 371.462 476.552 358.398 495.193 356.403C511.912 354.614 529.443 361.341 542.506 377.387L607.408 319.441L620.238 307.985L629.777 322.298C650.21 352.961 660.335 379.362 657.986 407.193C655.9 431.901 644.107 455.453 626.408 481.883L637.849 495.983C637.87 495.966 637.892 495.948 637.913 495.931L656.892 518.985C607.309 559.802 554.998 571.52 508.304 562.679C462.005 553.912 422.646 525.201 397.896 487.717C373.128 450.206 362.454 403.057 374.867 357.104ZM561.216 400.714L607.336 456.418C620.361 435.666 626.961 419.712 628.23 404.681C629.479 389.881 625.668 374.154 614.025 353.565L561.216 400.714ZM498.371 386.095C504.152 385.477 512.147 387.387 519.292 396.154C516.234 402.739 512.591 406.636 509.355 408.864C505.182 411.737 500.8 412.474 496.897 411.865C488.445 410.545 483.666 403.927 484.924 396.779C485.764 392.001 490.528 386.935 498.371 386.095Z" fill="#121212"/>
<path d="M569.211 204C566.23 222.6 563.724 233.657 556.85 240.532C549.975 247.406 538.918 249.912 520.318 252.893C538.918 255.875 549.975 258.38 556.85 265.276C563.724 272.15 566.23 283.207 569.211 301.822C572.193 283.207 574.699 272.15 581.573 265.255C588.468 258.38 599.525 255.875 618.14 252.893C599.525 249.912 588.468 247.406 581.594 240.532C574.699 233.657 572.193 222.6 569.211 204Z" fill="#121212"/>
<path fill-rule="evenodd" clip-rule="evenodd" d="M249 652.875V816H275.526V753.442H308.971C319.12 753.442 328.193 751.366 336.189 747.214C344.339 743.062 350.721 737.219 355.334 729.684C360.101 722.149 362.484 713.307 362.484 703.158C362.484 693.009 360.101 684.168 355.334 676.633C350.721 669.098 344.339 663.255 336.189 659.103C328.193 654.951 319.12 652.875 308.971 652.875H249ZM275.526 675.941V730.376H307.587C313.123 730.376 317.967 729.3 322.119 727.147C326.425 724.84 329.808 721.688 332.268 717.69C334.728 713.538 335.958 708.694 335.958 703.158C335.958 697.623 334.728 692.856 332.268 688.858C329.808 684.706 326.425 681.553 322.119 679.401C317.967 677.094 313.123 675.941 307.587 675.941H275.526Z" fill="#121212"/>
<path d="M390.105 678.939C393.026 681.861 396.64 683.322 400.946 683.322C405.405 683.322 409.019 681.861 411.787 678.939C414.554 676.018 415.938 672.404 415.938 668.098C415.938 663.793 414.554 660.179 411.787 657.258C409.019 654.336 405.405 652.875 400.946 652.875C396.64 652.875 393.026 654.336 390.105 657.258C387.337 660.179 385.953 663.793 385.953 668.098C385.953 672.404 387.337 676.018 390.105 678.939Z" fill="#121212"/>
<path d="M388.308 697.02V816H413.68V697.02H388.308Z" fill="#121212"/>
<path d="M439.407 816V652.875H464.78V816H439.407Z" fill="#121212"/>
<path d="M492.4 678.939C495.321 681.861 498.935 683.322 503.241 683.322C507.7 683.322 511.314 681.861 514.082 678.939C516.85 676.018 518.234 672.404 518.234 668.098C518.234 663.793 516.85 660.179 514.082 657.258C511.314 654.336 507.7 652.875 503.241 652.875C498.935 652.875 495.321 654.336 492.4 657.258C489.632 660.179 488.248 663.793 488.248 668.098C488.248 672.404 489.632 676.018 492.4 678.939Z" fill="#121212"/>
<path d="M490.603 697.02V816H515.975V697.02H490.603Z" fill="#121212"/>
<path fill-rule="evenodd" clip-rule="evenodd" d="M567.767 809.03C575.917 814.105 584.788 816 594.784 816C603.241 816 610.977 814.874 617.589 811.337C622.009 808.87 625.776 805.819 628.891 802.183V816H654.264V701.633H628.891V715.942C625.682 712.276 621.838 709.245 617.358 706.849C610.9 703.158 603.241 701.633 594.784 701.633C584.788 701.633 575.917 703.927 567.767 709.156C559.77 714.23 553.389 721.15 548.622 729.915C544.009 738.526 541.702 748.29 541.702 759.208C541.702 769.972 544.009 779.737 548.622 788.502C553.389 797.113 559.77 803.956 567.767 809.03ZM621.741 783.197C616.051 789.501 608.516 792.654 599.136 792.654C592.985 792.654 587.526 791.27 582.759 788.502C578.146 785.58 574.456 781.582 571.688 776.508C569.074 771.433 567.767 765.59 567.767 758.978C567.767 752.365 569.074 746.522 571.688 741.448C574.456 736.373 578.146 732.452 582.759 729.684C587.526 726.762 592.985 725.302 599.136 725.302C605.441 725.302 610.9 726.762 615.513 729.684C620.28 732.452 623.97 736.373 626.585 741.448C629.199 746.522 630.506 752.365 630.506 758.978C630.506 768.819 627.584 776.892 621.741 783.197Z" fill="#121212"/>
<path d="M677.732 701.633V816H703.105V750.386C703.113 745.489 704.189 741.125 706.334 737.296C708.487 733.451 711.485 730.453 715.329 728.3C719.174 726.147 723.556 725.071 728.477 725.071C735.858 725.071 741.855 727.454 746.468 732.221C751.235 736.988 753.619 743.062 753.619 750.443V816H778.991V744.907C778.991 737.68 777.146 730.76 773.456 724.148C769.765 717.382 764.691 711.923 758.232 707.772C751.774 703.466 744.787 701.633 736.483 701.633C728.333 701.633 720.558 703.235 713.946 707.08C709.747 709.479 706.133 712.495 703.105 716.129V701.633H677.732Z" fill="#121212"/>
</svg>
